<svg width="84" height="104" viewBox="0 0 84 104" fill="none" xmlns="http://www.w3.org/2000/svg">
<path d="M42.0001 11.6809C35.7603 11.6809 29.4393 13.1608 29.4393 15.9868C29.4393 18.8128 35.7603 20.2928 42.0001 20.2928C48.2398 20.2928 54.5608 18.8128 54.5608 15.9868C54.5608 13.1608 48.2398 11.6809 42.0001 11.6809ZM42.0001 18.9534C35.0982 18.9534 30.6885 17.1989 30.6885 15.9868C30.6885 14.7747 35.092 13.0202 42.0001 13.0202C48.9081 13.0202 53.3116 14.7747 53.3116 15.9868C53.3116 17.1989 48.9019 18.9534 42.0001 18.9534ZM42.0001 10C33.2307 10 23.9116 12.0961 23.9116 15.9868V59.7562C23.9116 63.6469 33.2307 65.743 42.0001 65.743C50.7695 65.743 60.0885 63.6469 60.0885 59.7562V15.9868C60.0885 12.0961 50.7695 10 42.0001 10ZM58.8393 59.7562C58.8393 61.6982 52.4309 64.4036 42.0001 64.4036C31.5692 64.4036 25.1608 61.6982 25.1608 59.7562V18.2905C27.984 20.7013 35.1607 21.9736 42.0001 21.9736C48.8394 21.9736 56.0161 20.6946 58.8393 18.2905V59.7562ZM42.0001 20.6343C31.5692 20.6343 25.1608 17.9288 25.1608 15.9868C25.1608 14.0448 31.5692 11.3393 42.0001 11.3393C52.4309 11.3393 58.8393 14.0448 58.8393 15.9868C58.8393 17.9288 52.4309 20.6343 42.0001 20.6343Z" fill="#282828"/>
<path d="M35.7761 43V36.3L36.0961 36.64H34.1261V36H36.4961V43H35.7761ZM39.3994 43L42.4194 36.32L42.6394 36.64H38.3094L38.6794 36.29V37.95H37.9694V36H43.1094V36.51L40.1794 43H39.3994ZM46.6528 43.06C46.1128 43.06 45.6328 42.92 45.2128 42.64C44.7928 42.3533 44.4628 41.9467 44.2228 41.42C43.9828 40.8867 43.8628 40.2467 43.8628 39.5C43.8628 38.7533 43.9828 38.1167 44.2228 37.59C44.4628 37.0567 44.7928 36.65 45.2128 36.37C45.6328 36.0833 46.1128 35.94 46.6528 35.94C47.1928 35.94 47.6728 36.0833 48.0928 36.37C48.5128 36.65 48.8428 37.0567 49.0828 37.59C49.3294 38.1167 49.4528 38.7533 49.4528 39.5C49.4528 40.2467 49.3294 40.8867 49.0828 41.42C48.8428 41.9467 48.5128 42.3533 48.0928 42.64C47.6728 42.92 47.1928 43.06 46.6528 43.06ZM46.6528 42.4C47.0661 42.4 47.4261 42.29 47.7328 42.07C48.0394 41.8433 48.2794 41.5167 48.4528 41.09C48.6261 40.6567 48.7128 40.1267 48.7128 39.5C48.7128 38.8733 48.6261 38.3467 48.4528 37.92C48.2794 37.4867 48.0394 37.16 47.7328 36.94C47.4261 36.7133 47.0661 36.6 46.6528 36.6C46.2528 36.6 45.8961 36.7133 45.5828 36.94C45.2694 37.16 45.0261 37.4867 44.8528 37.92C44.6794 38.3467 44.5928 38.8733 44.5928 39.5C44.5928 40.1267 44.6794 40.6567 44.8528 41.09C45.0261 41.5167 45.2694 41.8433 45.5828 42.07C45.8961 42.29 46.2528 42.4 46.6528 42.4Z" fill="#282828"/>
<path d="M10.186 88.743V79.363L10.634 79.839H7.876V78.943H11.194V88.743H10.186ZM15.5086 88.743L19.7366 79.391L20.0446 79.839H13.9826L14.5006 79.349V81.673H13.5066V78.943H20.7026V79.657L16.6006 88.743H15.5086ZM25.9133 88.827C25.1573 88.827 24.4853 88.631 23.8973 88.239C23.3093 87.8376 22.8473 87.2683 22.5113 86.531C22.1753 85.7843 22.0073 84.8883 22.0073 83.843C22.0073 82.7976 22.1753 81.9063 22.5113 81.169C22.8473 80.4223 23.3093 79.853 23.8973 79.461C24.4853 79.0596 25.1573 78.859 25.9133 78.859C26.6693 78.859 27.3413 79.0596 27.9293 79.461C28.5173 79.853 28.9793 80.4223 29.3153 81.169C29.6606 81.9063 29.8333 82.7976 29.8333 83.843C29.8333 84.8883 29.6606 85.7843 29.3153 86.531C28.9793 87.2683 28.5173 87.8376 27.9293 88.239C27.3413 88.631 26.6693 88.827 25.9133 88.827ZM25.9133 87.903C26.492 87.903 26.996 87.749 27.4253 87.441C27.8546 87.1236 28.1906 86.6663 28.4333 86.069C28.676 85.4623 28.7973 84.7203 28.7973 83.843C28.7973 82.9656 28.676 82.2283 28.4333 81.631C28.1906 81.0243 27.8546 80.567 27.4253 80.259C26.996 79.9416 26.492 79.783 25.9133 79.783C25.3533 79.783 24.854 79.9416 24.4153 80.259C23.9766 80.567 23.636 81.0243 23.3933 81.631C23.1506 82.2283 23.0293 82.9656 23.0293 83.843C23.0293 84.7203 23.1506 85.4623 23.3933 86.069C23.636 86.6663 23.9766 87.1236 24.4153 87.441C24.854 87.749 25.3533 87.903 25.9133 87.903ZM39.2349 91.529C38.5629 91.529 37.9189 91.431 37.3029 91.235C36.6869 91.039 36.1876 90.759 35.8049 90.395L36.3089 89.639C36.6542 89.947 37.0789 90.1896 37.5829 90.367C38.0962 90.5536 38.6376 90.647 39.2069 90.647C40.1402 90.647 40.8262 90.4276 41.2649 89.989C41.7036 89.5596 41.9229 88.8876 41.9229 87.973V86.139L42.0629 84.879L41.9649 83.619V81.393H42.9169V87.847C42.9169 89.1163 42.6042 90.045 41.9789 90.633C41.3629 91.2303 40.4482 91.529 39.2349 91.529ZM39.0529 88.463C38.3529 88.463 37.7229 88.3136 37.1629 88.015C36.6029 87.707 36.1596 87.2823 35.8329 86.741C35.5156 86.1996 35.3569 85.579 35.3569 84.879C35.3569 84.179 35.5156 83.563 35.8329 83.031C36.1596 82.4896 36.6029 82.0696 37.1629 81.771C37.7229 81.4723 38.3529 81.323 39.0529 81.323C39.7062 81.323 40.2942 81.4583 40.8169 81.729C41.3396 81.9996 41.7549 82.401 42.0629 82.933C42.3709 83.465 42.5249 84.1136 42.5249 84.879C42.5249 85.6443 42.3709 86.293 42.0629 86.825C41.7549 87.357 41.3396 87.763 40.8169 88.043C40.2942 88.323 39.7062 88.463 39.0529 88.463ZM39.1509 87.581C39.6922 87.581 40.1729 87.469 40.5929 87.245C41.0129 87.0116 41.3442 86.6943 41.5869 86.293C41.8296 85.8823 41.9509 85.411 41.9509 84.879C41.9509 84.347 41.8296 83.8803 41.5869 83.479C41.3442 83.0776 41.0129 82.765 40.5929 82.541C40.1729 82.3076 39.6922 82.191 39.1509 82.191C38.6189 82.191 38.1382 82.3076 37.7089 82.541C37.2889 82.765 36.9576 83.0776 36.7149 83.479C36.4816 83.8803 36.3649 84.347 36.3649 84.879C36.3649 85.411 36.4816 85.8823 36.7149 86.293C36.9576 86.6943 37.2889 87.0116 37.7089 87.245C38.1382 87.469 38.6189 87.581 39.1509 87.581ZM53.6409 88.813C52.9969 88.813 52.4183 88.6683 51.9049 88.379C51.3916 88.0803 50.9856 87.651 50.6869 87.091C50.3883 86.531 50.2389 85.8543 50.2389 85.061C50.2389 84.2583 50.3883 83.5816 50.6869 83.031C50.9949 82.471 51.4056 82.0463 51.9189 81.757C52.4323 81.4676 53.0063 81.323 53.6409 81.323C54.3409 81.323 54.9663 81.4816 55.5169 81.799C56.0769 82.107 56.5156 82.541 56.8329 83.101C57.1503 83.661 57.3089 84.3143 57.3089 85.061C57.3089 85.7983 57.1503 86.4516 56.8329 87.021C56.5156 87.581 56.0769 88.0196 55.5169 88.337C54.9663 88.6543 54.3409 88.813 53.6409 88.813ZM49.8469 88.743V78.355H50.8409V83.563L50.7009 85.047L50.7989 86.531V88.743H49.8469ZM53.5709 87.931C54.0936 87.931 54.5603 87.8143 54.9709 87.581C55.3816 87.3383 55.7083 87.0023 55.9509 86.573C56.1936 86.1343 56.3149 85.6303 56.3149 85.061C56.3149 84.4823 56.1936 83.9783 55.9509 83.549C55.7083 83.1196 55.3816 82.7883 54.9709 82.555C54.5603 82.3123 54.0936 82.191 53.5709 82.191C53.0483 82.191 52.5769 82.3123 52.1569 82.555C51.7463 82.7883 51.4196 83.1196 51.1769 83.549C50.9436 83.9783 50.8269 84.4823 50.8269 85.061C50.8269 85.6303 50.9436 86.1343 51.1769 86.573C51.4196 87.0023 51.7463 87.3383 52.1569 87.581C52.5769 87.8143 53.0483 87.931 53.5709 87.931ZM64.1502 88.743V87.119L64.1082 86.853V84.137C64.1082 83.5116 63.9309 83.031 63.5762 82.695C63.2309 82.359 62.7129 82.191 62.0222 82.191C61.5462 82.191 61.0935 82.2703 60.6642 82.429C60.2349 82.5876 59.8709 82.7976 59.5722 83.059L59.1242 82.317C59.4975 81.9996 59.9455 81.757 60.4682 81.589C60.9909 81.4116 61.5415 81.323 62.1202 81.323C63.0722 81.323 63.8049 81.561 64.3182 82.037C64.8409 82.5036 65.1022 83.2176 65.1022 84.179V88.743H64.1502ZM61.6162 88.813C61.0655 88.813 60.5849 88.7243 60.1742 88.547C59.7729 88.3603 59.4649 88.1083 59.2502 87.791C59.0355 87.4643 58.9282 87.091 58.9282 86.671C58.9282 86.2883 59.0169 85.943 59.1942 85.635C59.3809 85.3176 59.6795 85.0656 60.0902 84.879C60.5102 84.683 61.0702 84.585 61.7702 84.585H64.3042V85.327H61.7982C61.0889 85.327 60.5942 85.453 60.3142 85.705C60.0435 85.957 59.9082 86.2696 59.9082 86.643C59.9082 87.063 60.0715 87.399 60.3982 87.651C60.7249 87.903 61.1822 88.029 61.7702 88.029C62.3302 88.029 62.8109 87.903 63.2122 87.651C63.6229 87.3896 63.9215 87.0163 64.1082 86.531L64.3322 87.217C64.1455 87.7023 63.8189 88.0896 63.3522 88.379C62.8949 88.6683 62.3162 88.813 61.6162 88.813ZM71.188 91.529C70.516 91.529 69.872 91.431 69.256 91.235C68.64 91.039 68.1407 90.759 67.758 90.395L68.262 89.639C68.6073 89.947 69.032 90.1896 69.536 90.367C70.0493 90.5536 70.5907 90.647 71.16 90.647C72.0933 90.647 72.7793 90.4276 73.218 89.989C73.6567 89.5596 73.876 88.8876 73.876 87.973V86.139L74.016 84.879L73.918 83.619V81.393H74.87V87.847C74.87 89.1163 74.5573 90.045 73.932 90.633C73.316 91.2303 72.4013 91.529 71.188 91.529ZM71.006 88.463C70.306 88.463 69.676 88.3136 69.116 88.015C68.556 87.707 68.1127 87.2823 67.786 86.741C67.4687 86.1996 67.31 85.579 67.31 84.879C67.31 84.179 67.4687 83.563 67.786 83.031C68.1127 82.4896 68.556 82.0696 69.116 81.771C69.676 81.4723 70.306 81.323 71.006 81.323C71.6593 81.323 72.2473 81.4583 72.77 81.729C73.2927 81.9996 73.708 82.401 74.016 82.933C74.324 83.465 74.478 84.1136 74.478 84.879C74.478 85.6443 74.324 86.293 74.016 86.825C73.708 87.357 73.2927 87.763 72.77 88.043C72.2473 88.323 71.6593 88.463 71.006 88.463ZM71.104 87.581C71.6453 87.581 72.126 87.469 72.546 87.245C72.966 87.0116 73.2973 86.6943 73.54 86.293C73.7827 85.8823 73.904 85.411 73.904 84.879C73.904 84.347 73.7827 83.8803 73.54 83.479C73.2973 83.0776 72.966 82.765 72.546 82.541C72.126 82.3076 71.6453 82.191 71.104 82.191C70.572 82.191 70.0913 82.3076 69.662 82.541C69.242 82.765 68.9107 83.0776 68.668 83.479C68.4347 83.8803 68.318 84.347 68.318 84.879C68.318 85.411 68.4347 85.8823 68.668 86.293C68.9107 86.6943 69.242 87.0116 69.662 87.245C70.0913 87.469 70.572 87.581 71.104 87.581Z" fill="#282828"/>
</svg>
